<?xml version="1.0" encoding="UTF-8" standalone="no"?>
<!-- Created with Inkscape (http://www.inkscape.org/) -->
<svg id="svg2" xmlns:rdf="http://www.w3.org/1999/02/22-rdf-syntax-ns#" xmlns="http://www.w3.org/2000/svg" xml:space="preserve" height="1052.4" width="744.1" version="1.1" xmlns:cc="http://creativecommons.org/ns#" xmlns:dc="http://purl.org/dc/elements/1.1/"><title id="title3340">Bananajuice Logo</title><metadata id="metadata8"><rdf:RDF><cc:Work rdf:about=""><dc:format>image/svg+xml</dc:format><dc:type rdf:resource="http://purl.org/dc/dcmitype/StillImage"/><dc:title>Bananajuice Logo</dc:title></cc:Work></rdf:RDF></metadata><defs id="defs6"><clipPath id="clipPath16"><path id="path18" d="m0,841.89,595.28,0v-841.89h-595.28v841.89z"/></clipPath><clipPath id="clipPath40"><path id="path42" d="M430.06,135.19c-98.27-0.66-185.67-3.19-133.98-14.25,21.673-4.638,24.795-4.519,15.931-4.399-5.357,0.073-15.094,0.145-27.758-0.833-15.517-1.198-9.549-0.738-5.473-0.277,4.755,0.537,6.936,1.076-30.58-1.022-69.67-3.895-128.94-4.961-69.117-12.22,59.829-7.261,119.44-2.066,175.56-8.559,34.296-3.968,57.463-2.601,78.776-1.235,13.562,0.869,26.374,1.739,40.825,1.235,37.158-1.299,139.34,15.564,94.444,19.47-44.899,3.907-41.511,2.58-75.718,5.84-34.209,3.261-28.016,6.506-14.081,10.079,13.353,3.423-8.944,6.185-44.161,6.185-1.532,0-3.085-0.005-4.664-0.016"/></clipPath><clipPath id="clipPath48"><path id="path50" d="m-32768,32767,65535,0,0-65534-65535,0,0,65534z"/></clipPath><linearGradient id="linearGradient52" gradientUnits="userSpaceOnUse" gradientTransform="matrix(425.45312,0,0,-425.45312,154.42773,113.1084)"><stop id="stop54" stop-color="#FFF" offset="0"/><stop id="stop56" stop-color="#FFF" stop-opacity="0" offset="1"/></linearGradient><mask id="mask58"><g id="g60"><g id="g62" clip-path="url(#clipPath48)"><g id="g64"><g id="g66"><path id="path68" d="m-32768,32767,65535,0,0-65534-65535,0,0,65534z" fill="url(#linearGradient52)"/></g></g></g></g></mask><linearGradient id="linearGradient74" gradientUnits="userSpaceOnUse" gradientTransform="matrix(425.45312,0,0,-425.45312,154.42773,113.1084)"><stop id="stop76" stop-color="#2d2c2e" offset="0"/><stop id="stop78" stop-color="#2d2c2e" offset="1"/></linearGradient><pattern id="pattern248" height="65.3135" width="77.7822" patternUnits="userSpaceOnUse" y="0" x="0"><g id="g250" transform="translate(48.9521,6.6026)"><path id="path252" stroke-linejoin="miter" d="m0,0s-21.947-13.511-40.96,12.066v-49.395c19.013,25.578,40.96,12.066,40.96,12.066" fill-rule="nonzero" stroke="#2b2f2c" stroke-linecap="butt" stroke-miterlimit="4" stroke-dasharray="none" stroke-width="0.5" fill="#e76728"/></g><g id="g254" transform="translate(44.9306,39.2588)"><path id="path256" stroke-linejoin="miter" d="m0,0s21.948-13.51,40.96,12.066v-49.394c-19.012,25.577-40.96,12.065-40.96,12.065" fill-rule="nonzero" stroke="#2b2f2c" stroke-linecap="butt" stroke-miterlimit="4" stroke-dasharray="none" stroke-width="0.5" fill="#e11e2d"/></g><g id="g258" transform="translate(49.2549,47.1865)"><path id="path260" stroke-linejoin="miter" d="m0,0-4.296-7.857s21.947-13.511,40.96,12.066" fill-rule="nonzero" stroke="#2b2f2c" stroke-linecap="butt" stroke-miterlimit="4" stroke-dasharray="none" stroke-width="0.5" fill="#e76728"/></g><g id="g262" transform="translate(48.9521,71.916)"><path id="path264" stroke-linejoin="miter" d="m0,0s-21.947-13.511-40.96,12.066v-49.395c19.013,25.578,40.96,12.066,40.96,12.066" fill-rule="nonzero" stroke="#2b2f2c" stroke-linecap="butt" stroke-miterlimit="4" stroke-dasharray="none" stroke-width="0.5" fill="#e76728"/></g><g id="g266" transform="translate(87.1992,66.9092)"><path id="path268" fill-rule="nonzero" fill="#e11e2d" d="m0,0c-6.385,4.204-11.223,8.354-23.459,8.354-20.17,0-17.437-12.76-37.609-12.76,0,0-4.067,0.794-4.067-3.304,0-3.695,4.016-3.095,4.016-3.095,20.174,0,17.442-12.761,37.615-12.761,10.403,0,18.888,4.844,22.629,7.514,0.889,0.634,1.516,1.148,1.831,1.443,0.035,0.033,0.076,0.07,0.113,0.104,1.688,1.56,5.105,4.401,5.105,6.88,0,2.869-6.174,7.625-6.174,7.625"/></g><g id="g270" transform="translate(87.1992,66.9092)"><path id="path272" stroke-linejoin="miter" d="m0,0c-6.385,4.204-11.223,8.354-23.459,8.354-20.17,0-17.437-12.76-37.609-12.76,0,0-4.067,0.794-4.067-3.304,0-3.695,4.016-3.095,4.016-3.095,20.174,0,17.442-12.761,37.615-12.761,10.403,0,18.888,4.844,22.629,7.514,0.889,0.634,1.516,1.148,1.831,1.443,0.035,0.033,0.076,0.07,0.113,0.104,1.688,1.56,5.105,4.401,5.105,6.88,0,2.869-6.174,7.625-6.174,7.625z" stroke="#2b2f2c" stroke-linecap="butt" stroke-miterlimit="4" stroke-dasharray="none" stroke-width="0.5" fill="none"/></g><g id="g274" transform="translate(79.748,65.3135)"><path id="path276" fill-rule="nonzero" fill="#1e438e" d="m0,0c0-1.086-0.88-1.967-1.967-1.967-1.086,0-1.966,0.881-1.966,1.967,0,1.087,0.88,1.968,1.966,1.968,1.087,0,1.967-0.881,1.967-1.968"/></g><g id="g278" transform="translate(64.8262,59.1895)"><path id="path280" fill-rule="nonzero" fill="#1e438e" d="M0,0c0,5.502,4.192,10.022,9.556,10.548-0.344,0.033-0.693,0.052-1.045,0.052-5.855,0-10.6-4.745-10.6-10.6,0-5.854,4.745-10.6,10.6-10.6,0.352,0,0.701,0.02,1.045,0.053-5.364,0.525-9.556,5.046-9.556,10.547"/></g><g id="g282" transform="translate(-28.5274,47.1865)"><path id="path284" stroke-linejoin="miter" d="m0,0-4.296-7.857s21.948-13.511,40.96,12.066" fill-rule="nonzero" stroke="#2b2f2c" stroke-linecap="butt" stroke-miterlimit="4" stroke-dasharray="none" stroke-width="0.5" fill="#e76728"/></g><g id="g286" transform="translate(-32.8516,39.2588)"><path id="path288" stroke-linejoin="miter" d="m0,0s21.948-13.51,40.96,12.066v-49.394c-19.012,25.577-40.96,12.065-40.96,12.065" fill-rule="nonzero" stroke="#2b2f2c" stroke-linecap="butt" stroke-miterlimit="4" stroke-dasharray="none" stroke-width="0.5" fill="#e11e2d"/></g><g id="g290" transform="translate(9.418,66.9092)"><path id="path292" fill-rule="nonzero" fill="#e11e2d" d="m0,0c-6.385,4.204-11.223,8.354-23.459,8.354-20.17,0-17.438-12.76-37.61-12.76,0,0-4.067,0.794-4.067-3.304,0-3.695,4.016-3.095,4.016-3.095,20.174,0,17.442-12.761,37.616-12.761,10.403,0,18.887,4.844,22.629,7.514,0.888,0.634,1.515,1.148,1.83,1.443,0.036,0.033,0.076,0.07,0.114,0.104,1.688,1.56,5.104,4.401,5.104,6.88,0,2.869-6.173,7.625-6.173,7.625"/></g><g id="g294" transform="translate(9.418,66.9092)"><path id="path296" stroke-linejoin="miter" d="m0,0c-6.385,4.204-11.223,8.354-23.459,8.354-20.17,0-17.438-12.76-37.61-12.76,0,0-4.067,0.794-4.067-3.304,0-3.695,4.016-3.095,4.016-3.095,20.174,0,17.442-12.761,37.616-12.761,10.403,0,18.887,4.844,22.629,7.514,0.888,0.634,1.515,1.148,1.83,1.443,0.036,0.033,0.076,0.07,0.114,0.104,1.688,1.56,5.104,4.401,5.104,6.88,0,2.869-6.173,7.625-6.173,7.625z" stroke="#2b2f2c" stroke-linecap="butt" stroke-miterlimit="4" stroke-dasharray="none" stroke-width="0.5" fill="none"/></g><g id="g298" transform="translate(1.9668,65.3135)"><path id="path300" fill-rule="nonzero" fill="#1e438e" d="m0,0c0-1.086-0.88-1.967-1.967-1.967-1.086,0-1.966,0.881-1.966,1.967,0,1.087,0.88,1.968,1.966,1.968,1.087,0,1.967-0.881,1.967-1.968"/></g><g id="g302" transform="translate(44.6289,14.5293)"><path id="path304" stroke-linejoin="miter" d="m0,0,4.296-7.856s-21.948-13.512-40.96,12.066" fill-rule="nonzero" stroke="#2b2f2c" stroke-linecap="butt" stroke-miterlimit="4" stroke-dasharray="none" stroke-width="0.5" fill="#e11e2d"/></g><g id="g306" transform="translate(44.6289,38.7246)"><path id="path308" stroke-linejoin="miter" d="m0,0,4.296,7.858s-21.948,13.511-40.96-12.066" fill-rule="nonzero" stroke="#2b2f2c" stroke-linecap="butt" stroke-miterlimit="4" stroke-dasharray="none" stroke-width="0.5" fill="#e11e2d"/></g><g id="g310" transform="translate(67.7519,29.8457)"><path id="path312" fill-rule="nonzero" fill="#e76728" d="m0,0c-20.171,0-17.439,12.76-37.609,12.76-12.237,0-17.075-4.149-23.459-8.353,0,0-6.173-4.756-6.173-7.625,0-2.479,3.416-5.32,5.103-6.88,0.038-0.034,0.079-0.071,0.115-0.104,0.315-0.295,0.941-0.809,1.83-1.443,3.742-2.669,12.225-7.514,22.629-7.514,20.173,0,17.442,12.762,37.615,12.762,0,0,4.016-0.601,4.016,3.094,0,4.098-4.067,3.303-4.067,3.303"/></g><g id="g314" transform="translate(67.7519,29.8457)"><path id="path316" stroke-linejoin="miter" d="m0,0c-20.171,0-17.439,12.76-37.609,12.76-12.237,0-17.075-4.149-23.459-8.353,0,0-6.173-4.756-6.173-7.625,0-2.479,3.416-5.32,5.103-6.88,0.038-0.034,0.079-0.071,0.115-0.104,0.315-0.295,0.941-0.809,1.83-1.443,3.742-2.669,12.225-7.514,22.629-7.514,20.173,0,17.442,12.762,37.615,12.762,0,0,4.016-0.601,4.016,3.094,0,4.098-4.067,3.303-4.067,3.303z" stroke="#2b2f2c" stroke-linecap="butt" stroke-miterlimit="4" stroke-dasharray="none" stroke-width="0.5" fill="none"/></g><g id="g318" transform="translate(14.1348,32.6572)"><path id="path320" fill-rule="nonzero" fill="#1e438e" d="m0,0c0-1.087,0.88-1.967,1.967-1.967,1.086,0,1.966,0.88,1.966,1.967s-0.88,1.967-1.966,1.967c-1.087,0-1.967-0.88-1.967-1.967"/></g><g id="g322" transform="translate(29.0566,26.5332)"><path id="path324" fill-rule="nonzero" fill="#1e438e" d="m0,0c0,5.502-4.191,10.023-9.555,10.548,0.343,0.033,0.692,0.052,1.045,0.052,5.854,0,10.6-4.746,10.6-10.6,0-5.855-4.746-10.6-10.6-10.6-0.353,0-0.702,0.02-1.045,0.053,5.364,0.525,9.555,5.046,9.555,10.547"/></g><g id="g326" transform="translate(49.2549,6.0684)"><path id="path328" stroke-linejoin="miter" d="m0,0-4.296,7.858s21.947,13.511,40.96-12.066" fill-rule="nonzero" stroke="#2b2f2c" stroke-linecap="butt" stroke-miterlimit="4" stroke-dasharray="none" stroke-width="0.5" fill="#e76728"/></g><g id="g330" transform="translate(87.1992,1.5957)"><path id="path332" fill-rule="nonzero" fill="#e11e2d" d="m0,0c-6.385,4.204-11.223,8.354-23.459,8.354-20.17,0-17.437-12.76-37.609-12.76,0,0-4.067,0.794-4.067-3.303,0-3.696,4.016-3.096,4.016-3.096,20.174,0,17.442-12.761,37.615-12.761,10.403,0,18.888,4.844,22.629,7.515,0.889,0.633,1.516,1.147,1.831,1.442,0.035,0.033,0.076,0.071,0.113,0.104,1.688,1.561,5.105,4.4,5.105,6.88,0,2.87-6.174,7.625-6.174,7.625"/></g><g id="g334" transform="translate(87.1992,1.5957)"><path id="path336" stroke-linejoin="miter" d="m0,0c-6.385,4.204-11.223,8.354-23.459,8.354-20.17,0-17.437-12.76-37.609-12.76,0,0-4.067,0.794-4.067-3.303,0-3.696,4.016-3.096,4.016-3.096,20.174,0,17.442-12.761,37.615-12.761,10.403,0,18.888,4.844,22.629,7.515,0.889,0.633,1.516,1.147,1.831,1.442,0.035,0.033,0.076,0.071,0.113,0.104,1.688,1.561,5.105,4.4,5.105,6.88,0,2.87-6.174,7.625-6.174,7.625z" stroke="#2b2f2c" stroke-linecap="butt" stroke-miterlimit="4" stroke-dasharray="none" stroke-width="0.5" fill="none"/></g><g id="g338" transform="translate(79.748,0)"><path id="path340" fill-rule="nonzero" fill="#1e438e" d="m0,0c0-1.086-0.88-1.967-1.967-1.967-1.086,0-1.966,0.881-1.966,1.967,0,1.087,0.88,1.968,1.966,1.968,1.087,0,1.967-0.881,1.967-1.968"/></g><g id="g342" transform="translate(64.8262,-6.123)"><path id="path344" fill-rule="nonzero" fill="#1e438e" d="M0,0c0,5.501,4.192,10.021,9.556,10.547-0.344,0.033-0.693,0.053-1.045,0.053-5.855,0-10.6-4.746-10.6-10.6s4.745-10.6,10.6-10.6c0.352,0,0.701,0.019,1.045,0.052-5.364,0.525-9.556,5.046-9.556,10.548"/></g><g id="g346" transform="translate(-28.5274,6.0684)"><path id="path348" stroke-linejoin="miter" d="m0,0-4.296,7.858s21.948,13.511,40.96-12.066" fill-rule="nonzero" stroke="#2b2f2c" stroke-linecap="butt" stroke-miterlimit="4" stroke-dasharray="none" stroke-width="0.5" fill="#e76728"/></g><g id="g350" transform="translate(9.418,1.5957)"><path id="path352" fill-rule="nonzero" fill="#e11e2d" d="m0,0c-6.385,4.204-11.223,8.354-23.459,8.354-20.17,0-17.438-12.76-37.61-12.76,0,0-4.067,0.794-4.067-3.303,0-3.696,4.016-3.096,4.016-3.096,20.174,0,17.442-12.761,37.616-12.761,10.403,0,18.887,4.844,22.629,7.515,0.888,0.633,1.515,1.147,1.83,1.442,0.036,0.033,0.076,0.071,0.114,0.104,1.688,1.561,5.104,4.4,5.104,6.88,0,2.87-6.173,7.625-6.173,7.625"/></g><g id="g354" transform="translate(9.418,1.5957)"><path id="path356" stroke-linejoin="miter" d="m0,0c-6.385,4.204-11.223,8.354-23.459,8.354-20.17,0-17.438-12.76-37.61-12.76,0,0-4.067,0.794-4.067-3.303,0-3.696,4.016-3.096,4.016-3.096,20.174,0,17.442-12.761,37.616-12.761,10.403,0,18.887,4.844,22.629,7.515,0.888,0.633,1.515,1.147,1.83,1.442,0.036,0.033,0.076,0.071,0.114,0.104,1.688,1.561,5.104,4.4,5.104,6.88,0,2.87-6.173,7.625-6.173,7.625z" stroke="#2b2f2c" stroke-linecap="butt" stroke-miterlimit="4" stroke-dasharray="none" stroke-width="0.5" fill="none"/></g><g id="g358" transform="translate(1.9668,0)"><path id="path360" fill-rule="nonzero" fill="#1e438e" d="m0,0c0-1.086-0.88-1.967-1.967-1.967-1.086,0-1.966,0.881-1.966,1.967,0,1.087,0.88,1.968,1.966,1.968,1.087,0,1.967-0.881,1.967-1.968"/></g></pattern></defs><g id="g3245"><g id="g12" transform="matrix(1.3091329,0,0,-1.3091329,-65.524268,1127.2769)"><g id="g14" clip-path="url(#clipPath16)"><g id="g20" transform="translate(537.752,762.5752)"><path id="path22" fill="#4a372e" d="m0,0-35.064,25.386-53.838,29.593-27.014,8.028s-11.196,1.998-21.459-2.266c-9.469-3.934-11.224-7.615-13.274-11.738-1.986-3.991-14.027-45.108-29.347-99.87-7.074-25.287-8.461-24.857-12.815-41.985-1.64-6.453-6.536-17.862-7.757-21.608-4.554,3.73-6.754,5.345-8.37,6.961-6.617,6.622-7.878,11.666-8.19,16.395-0.319,4.732-8.515,19.233-11.349,25.226-2.837,5.989-15.128,26.167-19.857,36.888-4.726,10.721-6.617,22.073-6.932,27.748-0.315,5.673,3.153,9.456-3.152,13.242-12.002,7.205-28.994-7.569-35.294-14.189-6.306-6.623-9.458-12.612-12.607-16.395-3.153-3.783,3.778-9.46,11.345-9.46,7.562,0,9.77-3.783,13.234-6.621,3.468-2.836,14.813-20.808,20.172-34.997,5.356-14.189,15.44-35.316,15.44-35.316s-13.234-21.439-20.169-41.302c-6.932-19.866-8.823-51.396-8.823-51.396s1.262-18.601-1.261-33.736c-2.521-15.134-15.443-30.899-15.443-30.899s3.467,0.315,8.196,4.415c4.726,4.099,11.029,9.773,11.029,9.773l4.096-2.836-0.631-2.838c-7.562-5.043-8.824-11.667-9.138-19.548-0.315-7.884,10.714-12.928,10.714-12.928s0.631-9.145-0.945-26.17c-1.573-17.029-4.096-21.437-4.096-28.059,0-6.624,9.14-6.306,9.14-6.306s-0.632-7.253-2.206-16.086c-1.577-8.827-39.393-84.496-47.59-104.36-8.193-19.856-22.691-44.451-30.568-60.844-7.878-16.404-36.874-64.327-40.654-73.153-3.783-8.833-2.837-22.073-2.837-22.073s-4.728-4.732-8.193-8.515c-3.468-3.782,0.627-10.717,0.627-10.717s2.838-5.357,9.773-11.661c6.932-6.311,10.715,0.942,12.291,1.885,1.573,0.949,11.973,7.885,11.973,7.885,27.105-2.523,48.85,7.883,72.486,19.232s62.714,39.102,84.463,62.429c21.742,23.333,48.214,75.676,51.049,80.082,2.841,4.42,25.844,50.45,25.844,50.45s-0.313,2.211,2.21-2.84c2.516-5.044,1.572-18.914,1.572-39.725,0-20.813,16.075-18.284,34.671-16.393,18.596,1.892,24.895,29.957,24.895,61.169s-13.552,57.067-17.018,64.009c-3.471,6.928-15.431,16.667-15.443,17.971-0.085,11.954,4.725,53.911-4.726,94.271-9.456,40.357-32.778,69.68-48.223,90.807-7.628,10.44-20.724,22.494-32.82,32.82,8.908,33.281,23.63,88.569,27.713,105.54,5.965,24.793,19.127,54.582,21.459,59.247,2.333,4.665,5.132,10.263,13.063,9.33,7.93-0.933,17.26-4.199,27.722-9.33,10.462-5.132,77.241-50.849,81.44-53.648,4.198-2.799,9.33,1.399,12.595,8.303,3.278,6.935-2.097,10.758-2.097,10.758" fill-rule="nonzero"/></g><g id="g24" transform="translate(537.752,762.5752)"><path id="path26" stroke-linejoin="miter" d="m0,0-35.064,25.386-53.838,29.593-27.014,8.028s-11.196,1.998-21.459-2.266c-9.469-3.934-11.224-7.615-13.274-11.738-1.986-3.991-14.027-45.108-29.347-99.87-7.074-25.287-8.461-24.857-12.815-41.985-1.64-6.453-6.536-17.862-7.757-21.608-4.554,3.73-6.754,5.345-8.37,6.961-6.617,6.622-7.878,11.666-8.19,16.395-0.319,4.732-8.515,19.233-11.349,25.226-2.837,5.989-15.128,26.167-19.857,36.888-4.726,10.721-6.617,22.073-6.932,27.748-0.315,5.673,3.153,9.456-3.152,13.242-12.002,7.205-28.994-7.569-35.294-14.189-6.306-6.623-9.458-12.612-12.607-16.395-3.153-3.783,3.778-9.46,11.345-9.46,7.562,0,9.77-3.783,13.234-6.621,3.468-2.836,14.813-20.808,20.172-34.997,5.356-14.189,15.44-35.316,15.44-35.316s-13.234-21.439-20.169-41.302c-6.932-19.866-8.823-51.396-8.823-51.396s1.262-18.601-1.261-33.736c-2.521-15.134-15.443-30.899-15.443-30.899s3.467,0.315,8.196,4.415c4.726,4.099,11.029,9.773,11.029,9.773l4.096-2.836-0.631-2.838c-7.562-5.043-8.824-11.667-9.138-19.548-0.315-7.884,10.714-12.928,10.714-12.928s0.631-9.145-0.945-26.17c-1.573-17.029-4.096-21.437-4.096-28.059,0-6.624,9.14-6.306,9.14-6.306s-0.632-7.253-2.206-16.086c-1.577-8.827-39.393-84.496-47.59-104.36-8.193-19.856-22.691-44.451-30.568-60.844-7.878-16.404-36.874-64.327-40.654-73.153-3.783-8.833-2.837-22.073-2.837-22.073s-4.728-4.732-8.193-8.515c-3.468-3.782,0.627-10.717,0.627-10.717s2.838-5.357,9.773-11.661c6.932-6.311,10.715,0.942,12.291,1.885,1.573,0.949,11.973,7.885,11.973,7.885,27.105-2.523,48.85,7.883,72.486,19.232s62.714,39.102,84.463,62.429c21.742,23.333,48.214,75.676,51.049,80.082,2.841,4.42,25.844,50.45,25.844,50.45s-0.313,2.211,2.21-2.84c2.516-5.044,1.572-18.914,1.572-39.725,0-20.813,16.075-18.284,34.671-16.393,18.596,1.892,24.895,29.957,24.895,61.169s-13.552,57.067-17.018,64.009c-3.471,6.928-15.431,16.667-15.443,17.971-0.085,11.954,4.725,53.911-4.726,94.271-9.456,40.357-32.778,69.68-48.223,90.807-7.628,10.44-20.724,22.494-32.82,32.82,8.908,33.281,23.63,88.569,27.713,105.54,5.965,24.793,19.127,54.582,21.459,59.247,2.333,4.665,5.132,10.263,13.063,9.33,7.93-0.933,17.26-4.199,27.722-9.33,10.462-5.132,77.241-50.849,81.44-53.648,4.198-2.799,9.33,1.399,12.595,8.303,3.278,6.935-2.097,10.758-2.097,10.758z" stroke="#2d2c2e" stroke-linecap="butt" stroke-miterlimit="4" stroke-dasharray="none" stroke-width="1" fill="none"/></g><g id="g28" transform="translate(417.0547,538.4165)"><path id="path30" fill="#ffed00" d="m0,0c-13.552,24.277-33.407,57.698-47.902,72.202-5.237,5.238-10.137,10.264-14.701,14.809-0.816-3.049-1.557-5.81-2.2-8.205-0.576-2.148,8.942-4.664,8.942-4.664l-9.135,1.166,3.498-4.471-10.963,2.332-1.866-3.498s-6.997,5.637-6.997,5.637l-11.94,0.777s5.075,3.116,6.55,5.302c2.32,3.438,3.217,7.656,3.878,10.14,1.054,3.963,1.717,6.962,2.893,11.104-1.236,0.898-2.427,1.689-3.574,2.361-9.137,5.363-16.069,6.308-18.592,9.776-2.521,3.468-5.67,7.569-2.836,13.874,2.836,6.304-9.454,28.377-11.028,31.844-1.576,3.468-17.965,20.809-19.227,29.323-1.26,8.512-2.836,13.874-2.836,16.711,0,2.838-0.629,8.512-4.411,8.512l-16.389-18.287s16.704-27.114,18.28-31.215c1.577-4.097,16.072-35.943,17.963-40.041s5.989-10.09,5.989-10.09-9.142-18.287-16.703-32.477c-7.564-14.188-14.814-43.196-14.814-61.167,0-17.972-0.946-26.168-0.946-26.168s1.261-6.308,11.661-9.461c10.399-3.152,24.267-5.046,24.267-5.046s0.946,20.496,11.976,31.533c7.277,7.278,22.69,18.286,22.69,18.286s-23.321,25.223-19.853,36.574c0,0,31.514-33.736,46.64-35.627,0,0,2.84,1.26,3.47-6.624,0.631-7.881-1.26-10.087,0.314-12.609,1.579-2.526,16.072-39.099-9.14-58.647-25.213-19.548-46.644,0.315-46.644,0.315s-6.931-15.134-18.592-17.656c-11.66-2.521-17.016-2.207-17.016-2.207s0-15.764-2.206-25.855c-2.208-10.094-3.785-21.755-3.785-21.755s16.39,7.879,22.062,1.892c5.674-5.992,31.829-34.682,42.547-41.936,10.713-7.254,22.686-11.354,36.238-5.674,13.551,5.674,24.974,24.736,27.74,42.566,2.835,18.287,1.573,57.698-3.157,59.59-4.726,1.891-12.292,0.315-13.552-3.784-1.262-4.098-1.887-9.775-1.887-9.775l-6.623,0.315s1.579,19.866,12.61,21.127c11.03,1.261,18.278,1.577,24.582-0.945s15.756-5.993,13.235-11.037c-2.523-5.043-7.878-1.892-8.51-0.315-0.63,1.576-9.45,4.414-9.45,4.414s2.203-8.828,1.26-18.288c-0.948-9.46-1.26-29.954-1.26-29.954l25.843-14.818s1.884,4.413,1.884,25.855c0.017,21.445-4.706,69.686-18.26,93.965" fill-rule="nonzero"/></g><g id="g32" transform="translate(417.0547,538.4165)"><path id="path34" stroke-linejoin="miter" d="m0,0c-13.552,24.277-33.407,57.698-47.902,72.202-5.237,5.238-10.137,10.264-14.701,14.809-0.816-3.049-1.557-5.81-2.2-8.205-0.576-2.148,8.942-4.664,8.942-4.664l-9.135,1.166,3.498-4.471-10.963,2.332-1.866-3.498s-6.997,5.637-6.997,5.637l-11.94,0.777s5.075,3.116,6.55,5.302c2.32,3.438,3.217,7.656,3.878,10.14,1.054,3.963,1.717,6.962,2.893,11.104-1.236,0.898-2.427,1.689-3.574,2.361-9.137,5.363-16.069,6.308-18.592,9.776-2.521,3.468-5.67,7.569-2.836,13.874,2.836,6.304-9.454,28.377-11.028,31.844-1.576,3.468-17.965,20.809-19.227,29.323-1.26,8.512-2.836,13.874-2.836,16.711,0,2.838-0.629,8.512-4.411,8.512l-16.389-18.287s16.704-27.114,18.28-31.215c1.577-4.097,16.072-35.943,17.963-40.041s5.989-10.09,5.989-10.09-9.142-18.287-16.703-32.477c-7.564-14.188-14.814-43.196-14.814-61.167,0-17.972-0.946-26.168-0.946-26.168s1.261-6.308,11.661-9.461c10.399-3.152,24.267-5.046,24.267-5.046s0.946,20.496,11.976,31.533c7.277,7.278,22.69,18.286,22.69,18.286s-23.321,25.223-19.853,36.574c0,0,31.514-33.736,46.64-35.627,0,0,2.84,1.26,3.47-6.624,0.631-7.881-1.26-10.087,0.314-12.609,1.579-2.526,16.072-39.099-9.14-58.647-25.213-19.548-46.644,0.315-46.644,0.315s-6.931-15.134-18.592-17.656c-11.66-2.521-17.016-2.207-17.016-2.207s0-15.764-2.206-25.855c-2.208-10.094-3.785-21.755-3.785-21.755s16.39,7.879,22.062,1.892c5.674-5.992,31.829-34.682,42.547-41.936,10.713-7.254,22.686-11.354,36.238-5.674,13.551,5.674,24.974,24.736,27.74,42.566,2.835,18.287,1.573,57.698-3.157,59.59-4.726,1.891-12.292,0.315-13.552-3.784-1.262-4.098-1.887-9.775-1.887-9.775l-6.623,0.315s1.579,19.866,12.61,21.127c11.03,1.261,18.278,1.577,24.582-0.945s15.756-5.993,13.235-11.037c-2.523-5.043-7.878-1.892-8.51-0.315-0.63,1.576-9.45,4.414-9.45,4.414s2.203-8.828,1.26-18.288c-0.948-9.46-1.26-29.954-1.26-29.954l25.843-14.818s1.884,4.413,1.884,25.855c0.017,21.445-4.706,69.686-18.26,93.965z" stroke="#2d2c2e" stroke-linecap="butt" stroke-miterlimit="4" stroke-dasharray="none" stroke-width="1" fill="none"/></g></g></g><g id="g36" transform="matrix(1.3091329,0,0,-1.3091329,-65.524268,1127.2769)"><g id="g38" clip-path="url(#clipPath40)"><g id="g44"><g id="g70" mask="url(#mask58)"><g id="g72"><path id="path80" d="M430.06,135.19c-98.27-0.66-185.67-3.19-133.98-14.25,21.673-4.638,24.795-4.519,15.931-4.399-5.357,0.073-15.094,0.145-27.758-0.833-15.517-1.198-9.549-0.738-5.473-0.277,4.755,0.537,6.936,1.076-30.58-1.022-69.67-3.895-128.94-4.961-69.117-12.22,59.829-7.261,119.44-2.066,175.56-8.559,34.296-3.968,57.463-2.601,78.776-1.235,13.562,0.869,26.374,1.739,40.825,1.235,37.158-1.299,139.34,15.564,94.444,19.47-44.899,3.907-41.511,2.58-75.718,5.84-34.209,3.261-28.016,6.506-14.081,10.079,13.353,3.423-8.944,6.185-44.161,6.185-1.532,0-3.085-0.005-4.664-0.016" fill="url(#linearGradient74)"/></g></g></g></g></g><g id="g90" transform="matrix(1.3091329,0,0,-1.3091329,259.31585,133.48008)"><path id="path92" fill="#ffed00" d="m0,0s14.184,12.928,20.169,12.612c5.99-0.315,5.99-0.948,5.99-0.948l-0.632-3.153s-5.673-0.316-9.452-5.044c-3.783-4.729-14.499-16.08-14.499-16.08s-2.521-4.413,1.891-4.413c4.411,0,4.726-3.153-1.261-3.153-5.985,0-17.019-0.945-13.552,4.098,3.468,5.044,11.346,16.081,11.346,16.081" fill-rule="nonzero"/></g><g id="g94" transform="matrix(1.3091329,0,0,-1.3091329,259.31585,133.48008)"><path id="path96" stroke-linejoin="miter" d="m0,0s14.184,12.928,20.169,12.612c5.99-0.315,5.99-0.948,5.99-0.948l-0.632-3.153s-5.673-0.316-9.452-5.044c-3.783-4.729-14.499-16.08-14.499-16.08s-2.521-4.413,1.891-4.413c4.411,0,4.726-3.153-1.261-3.153-5.985,0-17.019-0.945-13.552,4.098,3.468,5.044,11.346,16.081,11.346,16.081z" stroke="#2d2c2e" stroke-linecap="butt" stroke-miterlimit="4" stroke-dasharray="none" stroke-width="1" fill="none"/></g><g id="g98" transform="matrix(1.3091329,0,0,-1.3091329,384.74453,392.28832)"><path id="path100" fill="#FFF" d="m0,0c11.343,0.316,21.253-9.108,23.635-18.917,2.514-10.406,6.299-35.628-12.292-46.35-18.597-10.717-41.603,0.316-44.751,11.353-1.613,5.64-2.114,23.618,5.457,35.882,7.238,11.728,22.406,17.88,27.951,18.032" fill-rule="nonzero"/></g><g id="g102" transform="matrix(1.3091329,0,0,-1.3091329,384.74453,392.28832)"><path id="path104" stroke-linejoin="miter" d="m0,0c11.343,0.316,21.253-9.108,23.635-18.917,2.514-10.406,6.299-35.628-12.292-46.35-18.597-10.717-41.603,0.316-44.751,11.353-1.613,5.64-2.114,23.618,5.457,35.882,7.238,11.728,22.406,17.88,27.951,18.032z" stroke="#2d2c2e" stroke-linecap="butt" stroke-miterlimit="4" stroke-dasharray="none" stroke-width="1" fill="none"/></g><g id="g106" transform="matrix(1.3091329,0,0,-1.3091329,290.67364,461.63139)"><path id="path108" fill="#FFF" d="m0,0,20.799-0.315s6.934-2.207,10.084-3.468c3.152-1.261,4.729-8.199,3.152-11.036-1.576-2.838-3.782-15.765-21.43-14.82-17.647,0.946-21.745,7.569-21.115,13.244,0.632,5.673,3.784,13.873,8.51,16.395" fill-rule="nonzero"/></g><g id="g110" transform="matrix(1.3091329,0,0,-1.3091329,290.67364,461.63139)"><path id="path112" stroke-linejoin="miter" d="m0,0,20.799-0.315s6.934-2.207,10.084-3.468c3.152-1.261,4.729-8.199,3.152-11.036-1.576-2.838-3.782-15.765-21.43-14.82-17.647,0.946-21.745,7.569-21.115,13.244,0.632,5.673,3.784,13.873,8.51,16.395z" stroke="#2d2c2e" stroke-linecap="butt" stroke-miterlimit="4" stroke-dasharray="none" stroke-width="1" fill="none"/></g><g id="g114" transform="matrix(1.3091329,0,0,-1.3091329,385.15494,419.52889)"><path id="path116" fill="#2d2c2e" d="M0,0c4.726,0,10.398-4.098,10.081-12.613-0.311-8.514-2.835-18.602-11.343-18.287-8.508,0.316-11.978,9.142-11.342,14.505,0.625,5.358,3.777,16.395,12.604,16.395" fill-rule="nonzero"/></g><g id="g118" transform="matrix(1.3091329,0,0,-1.3091329,385.97826,426.13203)"><path id="path120" fill="#FFF" d="m0,0c1.892,0,4.408-3.471,4.408-5.993s-0.625-7.25-4.725-7.25c-4.095,0-4.726,4.728-4.409,6.305,0.314,1.575,1.887,6.938,4.726,6.938" fill-rule="nonzero"/></g><g id="g122" transform="matrix(1.3091329,0,0,-1.3091329,385.97826,426.13203)"><path id="path124" stroke-linejoin="miter" d="m0,0c1.892,0,4.408-3.471,4.408-5.993s-0.625-7.25-4.725-7.25c-4.095,0-4.726,4.728-4.409,6.305,0.314,1.575,1.887,6.938,4.726,6.938z" stroke="#2d2c2e" stroke-linecap="butt" stroke-miterlimit="4" stroke-dasharray="none" stroke-width="1" fill="none"/></g><g id="g126" transform="matrix(1.3091329,0,0,-1.3091329,317.90204,469.47218)"><path id="path128" fill="#2d2c2e" d="m0,0c2.522,0,5.358-2.209,5.358-4.732,0-2.521-1.576-5.044-5.988-5.044-4.411,0-3.781,4.098-3.781,5.674,0,1.577,1.891,4.102,4.411,4.102" fill-rule="nonzero"/></g><g id="g130" transform="matrix(1.3091329,0,0,-1.3091329,411.97423,385.26836)"><path id="path132" fill="#6c452a" d="m0,0,0-8.514s-35.3,18.917-41.605,38.149c0,0,26.474-26.798,41.605-29.635" fill-rule="nonzero"/></g><g id="g134" transform="matrix(1.3091329,0,0,-1.3091329,331.92796,456.26643)"><path id="path136" fill="#6c452a" d="m0,0s-29.31,8.199-37.188,15.135c0,0-5.986-13.244-11.658-18.602,0,0,9.14,7.25,11.346,10.087,0,0,12.919-7.565,37.5-6.62" fill-rule="nonzero"/></g><g id="g138" transform="matrix(1.3091329,0,0,-1.3091329,327.80497,318.81324)"><path id="path140" fill="#fff8b4" d="m0,0s-16.946-17.543-20.487-32.791c-4.094-17.656-5.355-43.196,3.784-52.023,0,0-1.638,23.633,2.464,44.466,4.244,21.562,14.239,40.348,14.239,40.348" fill-rule="nonzero"/></g><g id="g142" transform="matrix(1.3091329,0,0,-1.3091329,463.94969,580.92233)"><path id="path144" fill="#e5403a" d="m0,0,2.209,9.145s13.552-3.789,23.953-12.616c10.4-8.826,22.378-18.284,29.307-35.625,6.935-17.341,10.719-36.579,7.885-59.595-2.841-23.015-2.841-31.842-13.552-37.834-10.72-5.993-34.041-10.4-34.353,10.093-0.318,20.494,2.203,26.481-3.159,45.088-5.349,18.597-19.219,42.248-22.06,45.089-2.834,2.834-3.464,4.407-3.464,4.407s8.508,13.876,9.769,18.289c0,0,0,2.523,6.306-0.629,2.839-1.42,19.667-9.568,30.371-22.239,13.045-15.437,20.054-35.777,20.054-35.777s0.061,19.324-13.013,37.051c-13.548,18.361-40.253,35.151-40.253,35.151" fill-rule="nonzero"/></g><g id="g146" transform="matrix(1.3091329,0,0,-1.3091329,307.17592,582.98186)"><path id="path148" fill="#ffed00" d="m0,0s18.844-4.848,32.776-24.594c18.911-26.799,47.276-23.652,60.51-18.608,13.234,5.05,11.973,1.897,13.863-1.573,1.892-3.471,12.922-20.807,12.922-20.807s2.524-7.571-1.89-16.71c-4.414-9.145-36.244-68.109-40.338-75.676-4.096-7.572-24.583-40.993-40.652-57.385-16.076-16.392-33.724-32.161-46.014-38.784-12.292-6.617-20.172-11.029-32.776-18.595-12.606-7.572-17.02-13.877-44.121-16.398-27.104-2.529-35.298-4.102-28.68,3.471,6.616,7.564,41.914,36.566,55.151,49.812s45.382,45.089,54.835,55.176c9.455,10.088,37.19,52.972,39.084,57.073,0,0-20.172-35.63-51.375-64.638-31.199-29.008-44.12-43.827-64.92-61.168-18.278-15.45-30.254-23.965-30.254-23.965l-8.824-6.935s-2.522-4.095-6.304,2.522c-3.783,6.623-2.207,15.137,2.207,23.334,4.413,8.196,25.213,46.348,38.764,70.312,13.55,23.959,34.98,69.365,41.599,84.497,6.617,15.137,18.909,38.784,24.583,52.029,5.662,13.264,16.691,36.91,19.844,47.634" fill-rule="nonzero"/></g><g id="g150" transform="matrix(1.3091329,0,0,-1.3091329,307.17592,582.98186)"><path id="path152" stroke-linejoin="miter" d="m0,0s18.844-4.848,32.776-24.594c18.911-26.799,47.276-23.652,60.51-18.608,13.234,5.05,11.973,1.897,13.863-1.573,1.892-3.471,12.922-20.807,12.922-20.807s2.524-7.571-1.89-16.71c-4.414-9.145-36.244-68.109-40.338-75.676-4.096-7.572-24.583-40.993-40.652-57.385-16.076-16.392-33.724-32.161-46.014-38.784-12.292-6.617-20.172-11.029-32.776-18.595-12.606-7.572-17.02-13.877-44.121-16.398-27.104-2.529-35.298-4.102-28.68,3.471,6.616,7.564,41.914,36.566,55.151,49.812s45.382,45.089,54.835,55.176c9.455,10.088,37.19,52.972,39.084,57.073,0,0-20.172-35.63-51.375-64.638-31.199-29.008-44.12-43.827-64.92-61.168-18.278-15.45-30.254-23.965-30.254-23.965l-8.824-6.935s-2.522-4.095-6.304,2.522c-3.783,6.623-2.207,15.137,2.207,23.334,4.413,8.196,25.213,46.348,38.764,70.312,13.55,23.959,34.98,69.365,41.599,84.497,6.617,15.137,18.909,38.784,24.583,52.029,5.662,13.264,16.691,36.91,19.844,47.634z" stroke="#2d2c2e" stroke-linecap="butt" stroke-miterlimit="4" stroke-dasharray="none" stroke-width="1" fill="none"/></g><g id="g154" transform="matrix(1.3091329,0,0,-1.3091329,337.50067,573.81478)"><path id="path156" fill="#fff8b4" d="m0,0s17.827-0.698,26.471-6.817c14.967-10.596,31.511-17.045,51.367-9.201,0,0-4.593-24.904-27.728-17.396-22.673,7.36-29.944,25.233-50.11,33.414" fill-rule="nonzero"/></g><g id="g158" transform="matrix(1.3091329,0,0,-1.3091329,326.15573,621.78154)"><path id="path160" fill="#ffd73d" d="m0,0s8.193-5.993,6.302-16.087c-1.893-10.088-31.514-68.727-47.274-91.436-15.755-22.698-64.289-92.7-64.289-92.7s26.779,51.577,54.722,104.73c24.456,46.509,50.538,95.49,50.538,95.49" fill-rule="nonzero"/></g><g id="g162" transform="matrix(1.3091329,0,0,-1.3091329,439.40083,688.84528)"><path id="path164" fill="#ffd73d" d="m0,0s-15.996-32.651-34.19-66.384c-16.591-30.76-37.577-64.827-70.986-88.161-29.887-20.874-65.935-40.479-95.243-47.728,0,0,16.071,16.283,38.539,36.628,18.315,16.588,51.415,21.266,69.529,39.671,40.339,40.984,77.849,118.09,92.351,125.97" fill-rule="nonzero"/></g><g id="g166" transform="matrix(1.3091329,0,0,-1.3091329,133.89477,954.48026)"><path id="path168" fill="#ffed00" d="m0,0s-7.566-3.782-6.935-5.669c0.631-1.897,3.783-6.622,5.359-8.833,1.576-2.209,2.207-5.355,6.618-4.094,4.413,1.26,8.822,4.408,8.822,4.408l-12.291,13.245-1.573,0.943z" fill-rule="nonzero"/></g><g id="g170" transform="matrix(1.3091329,0,0,-1.3091329,133.89477,954.48026)"><path id="path172" stroke-linejoin="miter" d="m0,0s-7.566-3.782-6.935-5.669c0.631-1.897,3.783-6.622,5.359-8.833,1.576-2.209,2.207-5.355,6.618-4.094,4.413,1.26,8.822,4.408,8.822,4.408l-12.291,13.245-1.573,0.943z" stroke="#2d2c2e" stroke-linecap="butt" stroke-miterlimit="4" stroke-dasharray="none" stroke-width="1" fill="none"/></g><g id="g174" transform="matrix(1.3091329,0,0,-1.3091329,442.09843,63.833291)"><path id="path176" stroke-linejoin="miter" d="m0,0c2.051,4.123,3.806,7.803,13.274,11.737,10.263,4.265,21.459,2.267,21.459,2.267l27.014-8.028,53.838-29.594,35.064-25.385s5.375-3.824,2.11-10.728c-3.266-6.904-8.398-11.102-12.596-8.304-4.198,2.799-70.977,48.517-81.439,53.648-10.462,5.132-19.792,8.397-27.723,9.33s-10.73-4.665-13.063-9.33" fill-rule="nonzero" stroke="#2d2c2e" stroke-linecap="butt" stroke-miterlimit="4" stroke-dasharray="none" stroke-width="1" fill="#4a372e"/></g><g id="g178" transform="matrix(1.3091329,0,0,-1.3091329,530.86628,80.907657)"><path id="path180" fill="#FFF" d="M0,0s44.9-32.655,55.396-39.652c10.497-6.998,8.164-5.249,10.497-3.499,2.333,1.749-65.893,43.151-65.893,43.151" fill-rule="nonzero"/></g><g id="g182" transform="matrix(1.3091329,0,0,-1.3091329,459.10812,58.596236)"><path id="path184" fill="#FFF" d="m0,0s-3.499,4.533-7.581-5.38-8.164-19.244-9.33-27.991c-1.166-8.746,9.914,33.371,16.911,33.371" fill-rule="nonzero"/></g><g id="g186" transform="matrix(1.3091329,0,0,-1.3091329,414.83168,209.92061)"><path id="path188" fill="#FFF" d="m0,0-19.826-74.057s5.579,23.925,8.58,40.819" fill-rule="nonzero"/></g><g id="g190" transform="matrix(1.3091329,0,0,-1.3091329,360.38248,731.59017)"><path id="path192" stroke-linejoin="miter" d="M0,0c3.676,6.128,5.514,8.605,11.029,19.303,5.516,10.697,6.742,16.239,8.886,19.302" stroke="#2d2c2e" stroke-linecap="butt" stroke-miterlimit="4" stroke-dasharray="none" stroke-width="1" fill="none"/></g><g id="g246" transform="matrix(1.3091329,0,0,-1.3091329,373.64636,321.75617)"><path id="path362" fill="url(#pattern248)" d="m0,0,6.803-1.749,6.609,1.36s24.525,94.956,31.938,120.96c8.543,29.972,23.499,64.047,25.365,67.779s3.838,7.196,12.311,6.376c8.524-0.824,14.651-4.17,25.071-7.524,9.24-2.975,85.705-59.783,85.705-59.783s-5.731,8.02,0.203,15.586c2.998,3.823,4.657,5.175,4.657,5.175s-6.763,5.9-16.423,11.982c-9.66,6.083-25.031,19.076-36.122,24.085-11.092,5.01-25.69,13.292-31.773,16.114-6.082,2.822-30.247,9.201-33.825,9.559-3.579,0.358-14.843-1.861-20.706-6.786-8.177-6.869-9.661-15.027-11.45-23.256s-8.944-31.485-11.449-41.861c-2.504-10.376-3.576-16.815-8.228-32.2-1.788-5.891-10.867-32.163-18.046-57.378-11.563-40.605-12.545-46.194-12.546-46.194l1.9-2.248z" fill-rule="nonzero"/></g><g id="g364" transform="matrix(1.3091329,0,0,-1.3091329,373.64636,321.75617)"><path id="path366" stroke-linejoin="miter" d="m0,0,6.803-1.749,6.609,1.36s24.525,94.956,31.938,120.96c8.543,29.972,23.499,64.047,25.365,67.779s3.838,7.196,12.311,6.376c8.524-0.824,14.651-4.17,25.071-7.524,9.24-2.975,85.705-59.783,85.705-59.783s-5.731,8.02,0.203,15.586c2.998,3.823,4.657,5.175,4.657,5.175s-6.763,5.9-16.423,11.982c-9.66,6.083-25.031,19.076-36.122,24.085-11.092,5.01-25.69,13.292-31.773,16.114-6.082,2.822-30.247,9.201-33.825,9.559-3.579,0.358-14.843-1.861-20.706-6.786-8.177-6.869-9.661-15.027-11.45-23.256s-8.944-31.485-11.449-41.861c-2.504-10.376-3.576-16.815-8.228-32.2-1.788-5.891-10.867-32.163-18.046-57.378-11.563-40.605-12.545-46.194-12.546-46.194l1.9-2.248z" stroke="#2d2c2e" stroke-linecap="butt" stroke-miterlimit="4" stroke-dasharray="none" stroke-width="1" fill="none"/></g><g id="g368" transform="matrix(1.3091329,0,0,-1.3091329,344.42101,281.89726)"><path id="path370" fill="#ffd73d" d="m0,0s20.635-7,20.9-8.4c0.266-1.399,0.481-1.897-0.476-4.327-0.957-2.429-2.264-1.122-4.093,1.229-1.829,2.352-11.628,10.453-16.331,11.498" fill-rule="nonzero"/></g><g id="g372" transform="matrix(1.3091329,0,0,-1.3091329,403.88432,327.39473)"><path id="path374" fill="#ffd73d" d="m0,0s2.919-1.044,4.879-0.653c1.96,0.392,0.915,0.653,2.613-0.915,1.698-1.567,7.579-8.11,10.192-13.004,2.612-4.895,1.828-4.372,5.617-8.684,3.789-4.311,7.316-6.272,4.965-6.01-2.352,0.262-11.496,8.362-14.894,13.719-3.397,5.356-13.372,15.547-13.372,15.547" fill-rule="nonzero"/></g><g id="g376" transform="matrix(1.3091329,0,0,-1.3091329,627.35867,155.18498)"><path id="path378" fill="#00a0e1" d="m0,0c-1.887-8.076-4.438-6.978-4.925-13.324-0.487-6.345-0.763-11.921,1.385-14.525,2.148-2.603,3.332-4.437,9.515-4.437,6.182,0,8.299,1.552,10.089,4.156,1.79,2.603,0.558,4.999-0.813,7.81-2.674,5.481-2.466,1.645-3.605,8.317-1.14,6.671,0.677,7.909-3.065,13.929s-3.69,4.218-10.642,6.354c-1.051-2.406,2.061-8.28,2.061-8.28" fill-rule="nonzero"/></g><g id="g380" transform="matrix(1.3091329,0,0,-1.3091329,627.35867,155.18498)"><path id="path382" stroke-linejoin="miter" d="m0,0c-1.887-8.076-4.438-6.978-4.925-13.324-0.487-6.345-0.763-11.921,1.385-14.525,2.148-2.603,3.332-4.437,9.515-4.437,6.182,0,8.299,1.552,10.089,4.156,1.79,2.603,0.558,4.999-0.813,7.81-2.674,5.481-2.466,1.645-3.605,8.317-1.14,6.671,0.677,7.909-3.065,13.929s-3.69,4.218-10.642,6.354c-1.051-2.406,2.061-8.28,2.061-8.28z" stroke="#2d2c2e" stroke-linecap="butt" stroke-miterlimit="4" stroke-dasharray="none" stroke-width="0.5" fill="none"/></g><g id="g384" transform="matrix(1.3091329,0,0,-1.3091329,628.45808,162.05033)"><path id="path386" fill="#86d0f1" d="m0,0s-5.746-9.923-2.03-17.036c3.716-7.112,1.012-5.141,8.898-5.513,7.886-0.371,6.607,1.243,6.607,1.243s-2.816,1.249-5.788,1.62c-2.973,0.372-6.983,0.101-7.998,6.236-0.808,4.892,1.798,10.146,0.311,13.45" fill-rule="nonzero"/></g><g id="g388" transform="matrix(1.3091329,0,0,-1.3091329,630.1085,148.47947)"><path id="path390" fill="#FFF" d="m0,0c3.095-1.041,3.741-1.59,4.328-2.556s1.386-2.206,1.386-3.309c0-1.102-0.451-3.709-0.451-3.709s0.15,3.716-1.655,6.166c-1.804,2.45-4.556,3.727-3.608,3.408" fill-rule="nonzero"/></g><g id="g392" transform="matrix(1.3091329,0,0,-1.3091329,610.24398,953.64804)"><path id="path394" fill="#00a0e1" d="m0,0c-15.609-2.786-36.363-5.443-12.987-8.078s24.996,1.232,43.017-2c18.022-3.233,64.774-1.859,41.398,2,0,0-29.658,2.798-32.588,3.699s-1.353,3.155,5.858,3.155,24.563,3.093,7.211,3.8c-17.351,0.707-40.638-0.564-51.909-2.576" fill-rule="nonzero"/></g><g id="g396" transform="matrix(1.3091329,0,0,-1.3091329,610.24398,953.64804)"><path id="path398" stroke-linejoin="miter" d="m0,0c-15.609-2.786-36.363-5.443-12.987-8.078s24.996,1.232,43.017-2c18.022-3.233,64.774-1.859,41.398,2,0,0-29.658,2.798-32.588,3.699s-1.353,3.155,5.858,3.155,24.563,3.093,7.211,3.8c-17.351,0.707-40.638-0.564-51.909-2.576z" stroke="#2d2c2e" stroke-linecap="butt" stroke-miterlimit="4" stroke-dasharray="none" stroke-width="0.5" fill="none"/></g><g id="g400" transform="matrix(1.3091329,0,0,-1.3091329,617.4289,956.13461)"><path id="path402" fill="#86d0f1" d="m0,0s-30.872-2.705-18.479-4.282c12.394-1.577,15.323,0.224,19.831,0,4.507-0.225,11.493-1.082,15.324-0.654,3.831,0.429-0.903,2.361-8.789,2.409-7.887,0.048-13.07,2.077-7.887,2.527" fill-rule="nonzero"/></g><g id="g404" transform="matrix(1.3091329,0,0,-1.3091329,662.85987,952.59458)"><path id="path406" fill="#86d0f1" d="m0,0s-4.281,0.45-6.31-1.353c-2.028-1.802-8.563-3.154,0-5.182,8.564-2.028,1.336-1.224,1.006,1.304-0.33,2.527-3.259,1.851,5.304,5.231" fill-rule="nonzero"/></g></g></svg>
